<mxfile host="app.diagrams.net" modified="2022-05-30T04:25:44.122Z" agent="5.0 (Windows NT 10.0; Win64; x64) AppleWebKit/537.36 (KHTML, like Gecko) Chrome/102.0.0.0 Safari/537.36" etag="_OMcnS84UHlUfPsN4dun" version="18.1.3" type="github">
  <diagram id="PmKWHf3XF2wdjFBg__V2" name="Page-1">
    <mxGraphModel dx="1865" dy="585" grid="1" gridSize="10" guides="1" tooltips="1" connect="1" arrows="1" fold="1" page="1" pageScale="1" pageWidth="827" pageHeight="1169" math="1" shadow="0">
      <root>
        <mxCell id="0" />
        <mxCell id="1" parent="0" />
        <mxCell id="Il5zqESTYhuWdmyWhMW6-3" value="" style="group" vertex="1" connectable="0" parent="1">
          <mxGeometry x="-743" y="110" width="23" height="40" as="geometry" />
        </mxCell>
        <mxCell id="Il5zqESTYhuWdmyWhMW6-4" value="0" style="rounded=0;whiteSpace=wrap;html=1;fontSize=14;" vertex="1" parent="Il5zqESTYhuWdmyWhMW6-3">
          <mxGeometry width="23" height="20" as="geometry" />
        </mxCell>
        <mxCell id="Il5zqESTYhuWdmyWhMW6-5" value="1" style="rounded=0;whiteSpace=wrap;html=1;fontSize=14;" vertex="1" parent="Il5zqESTYhuWdmyWhMW6-3">
          <mxGeometry y="20" width="23" height="20" as="geometry" />
        </mxCell>
        <mxCell id="Il5zqESTYhuWdmyWhMW6-6" value="" style="curved=1;endArrow=classic;html=1;rounded=0;exitX=1;exitY=0.5;exitDx=0;exitDy=0;entryX=0;entryY=0.5;entryDx=0;entryDy=0;" edge="1" parent="1" source="Il5zqESTYhuWdmyWhMW6-4" target="Il5zqESTYhuWdmyWhMW6-7">
          <mxGeometry width="50" height="50" relative="1" as="geometry">
            <mxPoint x="-490" y="70" as="sourcePoint" />
            <mxPoint x="-660" y="110" as="targetPoint" />
            <Array as="points">
              <mxPoint x="-700" y="130" />
              <mxPoint x="-690" y="110" />
            </Array>
          </mxGeometry>
        </mxCell>
        <mxCell id="Il5zqESTYhuWdmyWhMW6-7" value="1" style="rounded=0;whiteSpace=wrap;html=1;fontSize=14;" vertex="1" parent="1">
          <mxGeometry x="-667" y="100" width="30" height="20" as="geometry" />
        </mxCell>
        <mxCell id="Il5zqESTYhuWdmyWhMW6-8" value="a" style="rounded=0;whiteSpace=wrap;html=1;fontSize=14;" vertex="1" parent="1">
          <mxGeometry x="-637" y="100" width="30" height="20" as="geometry" />
        </mxCell>
        <mxCell id="Il5zqESTYhuWdmyWhMW6-9" value="" style="curved=1;endArrow=classic;html=1;rounded=0;exitX=1;exitY=0.5;exitDx=0;exitDy=0;entryX=0;entryY=0.5;entryDx=0;entryDy=0;" edge="1" parent="1" source="Il5zqESTYhuWdmyWhMW6-5" target="Il5zqESTYhuWdmyWhMW6-10">
          <mxGeometry width="50" height="50" relative="1" as="geometry">
            <mxPoint x="-710" y="130" as="sourcePoint" />
            <mxPoint x="-660" y="140" as="targetPoint" />
            <Array as="points">
              <mxPoint x="-690" y="150" />
              <mxPoint x="-680" y="130" />
            </Array>
          </mxGeometry>
        </mxCell>
        <mxCell id="Il5zqESTYhuWdmyWhMW6-10" value="2" style="rounded=0;whiteSpace=wrap;html=1;fontSize=14;" vertex="1" parent="1">
          <mxGeometry x="-667" y="130" width="30" height="20" as="geometry" />
        </mxCell>
        <mxCell id="Il5zqESTYhuWdmyWhMW6-11" value="a" style="rounded=0;whiteSpace=wrap;html=1;fontSize=14;" vertex="1" parent="1">
          <mxGeometry x="-637" y="130" width="30" height="20" as="geometry" />
        </mxCell>
        <mxCell id="Il5zqESTYhuWdmyWhMW6-13" value="3" style="rounded=0;whiteSpace=wrap;html=1;fontSize=14;" vertex="1" parent="1">
          <mxGeometry x="-604" y="100" width="30" height="20" as="geometry" />
        </mxCell>
        <mxCell id="Il5zqESTYhuWdmyWhMW6-14" value="b" style="rounded=0;whiteSpace=wrap;html=1;fontSize=14;" vertex="1" parent="1">
          <mxGeometry x="-574" y="100" width="30" height="20" as="geometry" />
        </mxCell>
        <mxCell id="Il5zqESTYhuWdmyWhMW6-15" value="2" style="rounded=0;whiteSpace=wrap;html=1;fontSize=14;" vertex="1" parent="1">
          <mxGeometry x="-743" y="150" width="23" height="20" as="geometry" />
        </mxCell>
        <mxCell id="Il5zqESTYhuWdmyWhMW6-18" value="" style="group" vertex="1" connectable="0" parent="1">
          <mxGeometry x="-743" y="170" width="23" height="60" as="geometry" />
        </mxCell>
        <mxCell id="Il5zqESTYhuWdmyWhMW6-19" value="3" style="rounded=0;whiteSpace=wrap;html=1;fontSize=14;" vertex="1" parent="Il5zqESTYhuWdmyWhMW6-18">
          <mxGeometry width="23" height="20" as="geometry" />
        </mxCell>
        <mxCell id="Il5zqESTYhuWdmyWhMW6-20" value="4" style="rounded=0;whiteSpace=wrap;html=1;fontSize=14;" vertex="1" parent="Il5zqESTYhuWdmyWhMW6-18">
          <mxGeometry y="20" width="23" height="20" as="geometry" />
        </mxCell>
        <mxCell id="Il5zqESTYhuWdmyWhMW6-21" value="5" style="rounded=0;whiteSpace=wrap;html=1;fontSize=14;" vertex="1" parent="Il5zqESTYhuWdmyWhMW6-18">
          <mxGeometry y="40" width="23" height="20" as="geometry" />
        </mxCell>
        <mxCell id="Il5zqESTYhuWdmyWhMW6-22" value="2" style="rounded=0;whiteSpace=wrap;html=1;fontSize=14;" vertex="1" parent="1">
          <mxGeometry x="-670" y="165" width="30" height="20" as="geometry" />
        </mxCell>
        <mxCell id="Il5zqESTYhuWdmyWhMW6-23" value="c" style="rounded=0;whiteSpace=wrap;html=1;fontSize=14;" vertex="1" parent="1">
          <mxGeometry x="-640" y="165" width="30" height="20" as="geometry" />
        </mxCell>
        <mxCell id="Il5zqESTYhuWdmyWhMW6-24" value="" style="curved=1;endArrow=classic;html=1;rounded=0;exitX=1;exitY=0.5;exitDx=0;exitDy=0;entryX=0;entryY=0.5;entryDx=0;entryDy=0;" edge="1" parent="1" source="Il5zqESTYhuWdmyWhMW6-19" target="Il5zqESTYhuWdmyWhMW6-22">
          <mxGeometry width="50" height="50" relative="1" as="geometry">
            <mxPoint x="-710" y="70" as="sourcePoint" />
            <mxPoint x="-657" y="60" as="targetPoint" />
            <Array as="points">
              <mxPoint x="-700" y="190" />
              <mxPoint x="-690" y="170" />
            </Array>
          </mxGeometry>
        </mxCell>
        <mxCell id="Il5zqESTYhuWdmyWhMW6-25" value="4" style="rounded=0;whiteSpace=wrap;html=1;fontSize=14;" vertex="1" parent="1">
          <mxGeometry x="-607" y="165" width="30" height="20" as="geometry" />
        </mxCell>
        <mxCell id="Il5zqESTYhuWdmyWhMW6-27" value="a" style="rounded=0;whiteSpace=wrap;html=1;fontSize=14;" vertex="1" parent="1">
          <mxGeometry x="-577" y="165" width="29" height="20" as="geometry" />
        </mxCell>
        <mxCell id="Il5zqESTYhuWdmyWhMW6-28" value="5" style="rounded=0;whiteSpace=wrap;html=1;fontSize=14;" vertex="1" parent="1">
          <mxGeometry x="-670" y="196" width="30" height="20" as="geometry" />
        </mxCell>
        <mxCell id="Il5zqESTYhuWdmyWhMW6-29" value="" style="curved=1;endArrow=classic;html=1;rounded=0;exitX=1;exitY=0.5;exitDx=0;exitDy=0;entryX=0;entryY=0.5;entryDx=0;entryDy=0;" edge="1" parent="1" source="Il5zqESTYhuWdmyWhMW6-20" target="Il5zqESTYhuWdmyWhMW6-28">
          <mxGeometry width="50" height="50" relative="1" as="geometry">
            <mxPoint x="-710" y="190" as="sourcePoint" />
            <mxPoint x="-660" y="185" as="targetPoint" />
            <Array as="points">
              <mxPoint x="-700" y="210" />
              <mxPoint x="-690" y="200" />
            </Array>
          </mxGeometry>
        </mxCell>
        <mxCell id="Il5zqESTYhuWdmyWhMW6-30" value="b" style="rounded=0;whiteSpace=wrap;html=1;fontSize=14;" vertex="1" parent="1">
          <mxGeometry x="-640" y="196" width="30" height="20" as="geometry" />
        </mxCell>
        <mxCell id="Il5zqESTYhuWdmyWhMW6-31" value="1" style="rounded=0;whiteSpace=wrap;html=1;fontSize=14;" vertex="1" parent="1">
          <mxGeometry x="-670" y="230" width="30" height="20" as="geometry" />
        </mxCell>
        <mxCell id="Il5zqESTYhuWdmyWhMW6-32" value="" style="curved=1;endArrow=classic;html=1;rounded=0;exitX=1;exitY=0.5;exitDx=0;exitDy=0;entryX=0;entryY=0.5;entryDx=0;entryDy=0;" edge="1" parent="1" source="Il5zqESTYhuWdmyWhMW6-21" target="Il5zqESTYhuWdmyWhMW6-31">
          <mxGeometry width="50" height="50" relative="1" as="geometry">
            <mxPoint x="-710" y="190" as="sourcePoint" />
            <mxPoint x="-660" y="185" as="targetPoint" />
            <Array as="points">
              <mxPoint x="-710" y="240" />
              <mxPoint x="-690" y="220" />
            </Array>
          </mxGeometry>
        </mxCell>
        <mxCell id="Il5zqESTYhuWdmyWhMW6-33" value="b" style="rounded=0;whiteSpace=wrap;html=1;fontSize=14;" vertex="1" parent="1">
          <mxGeometry x="-640" y="230" width="30" height="20" as="geometry" />
        </mxCell>
        <mxCell id="Il5zqESTYhuWdmyWhMW6-34" value="2" style="rounded=0;whiteSpace=wrap;html=1;fontSize=14;" vertex="1" parent="1">
          <mxGeometry x="-607" y="230" width="30" height="20" as="geometry" />
        </mxCell>
        <mxCell id="Il5zqESTYhuWdmyWhMW6-36" value="c" style="rounded=0;whiteSpace=wrap;html=1;fontSize=14;" vertex="1" parent="1">
          <mxGeometry x="-577" y="230" width="30" height="20" as="geometry" />
        </mxCell>
        <mxCell id="Il5zqESTYhuWdmyWhMW6-37" value="&lt;font style=&quot;font-size: 18px;&quot;&gt;文法：a::= bc&lt;/font&gt;" style="text;html=1;strokeColor=none;fillColor=none;align=center;verticalAlign=middle;whiteSpace=wrap;rounded=0;" vertex="1" parent="1">
          <mxGeometry x="-720" y="270" width="130" height="20" as="geometry" />
        </mxCell>
        <mxCell id="Il5zqESTYhuWdmyWhMW6-42" value="" style="group" vertex="1" connectable="0" parent="1">
          <mxGeometry x="-800" y="51" width="114.5" height="30" as="geometry" />
        </mxCell>
        <mxCell id="Il5zqESTYhuWdmyWhMW6-38" value="&lt;span style=&quot;font-size: 18px;&quot;&gt;顶点集&amp;nbsp;&lt;/span&gt;" style="text;html=1;strokeColor=none;fillColor=none;align=center;verticalAlign=middle;whiteSpace=wrap;rounded=0;" vertex="1" parent="Il5zqESTYhuWdmyWhMW6-42">
          <mxGeometry width="100" height="30" as="geometry" />
        </mxCell>
        <mxCell id="Il5zqESTYhuWdmyWhMW6-41" value="$$V$$" style="text;html=1;strokeColor=none;fillColor=none;align=center;verticalAlign=middle;whiteSpace=wrap;rounded=0;fontSize=18;" vertex="1" parent="Il5zqESTYhuWdmyWhMW6-42">
          <mxGeometry x="54.5" y="2.5" width="60" height="25" as="geometry" />
        </mxCell>
        <mxCell id="Il5zqESTYhuWdmyWhMW6-43" value="2" style="rounded=0;whiteSpace=wrap;html=1;fontSize=14;" vertex="1" parent="1">
          <mxGeometry x="-520" y="196" width="30" height="20" as="geometry" />
        </mxCell>
        <mxCell id="Il5zqESTYhuWdmyWhMW6-44" value="a" style="rounded=0;whiteSpace=wrap;html=1;fontSize=14;" vertex="1" parent="1">
          <mxGeometry x="-490" y="196" width="30" height="20" as="geometry" />
        </mxCell>
        <mxCell id="Il5zqESTYhuWdmyWhMW6-45" value="" style="endArrow=none;dashed=1;html=1;rounded=0;fontSize=18;" edge="1" parent="1">
          <mxGeometry width="50" height="50" relative="1" as="geometry">
            <mxPoint x="-536" y="100" as="sourcePoint" />
            <mxPoint x="-536" y="260" as="targetPoint" />
          </mxGeometry>
        </mxCell>
        <mxCell id="Il5zqESTYhuWdmyWhMW6-46" value="2" style="rounded=0;whiteSpace=wrap;html=1;fontSize=14;" vertex="1" parent="1">
          <mxGeometry x="-520" y="100" width="30" height="20" as="geometry" />
        </mxCell>
        <mxCell id="Il5zqESTYhuWdmyWhMW6-47" value="a" style="rounded=0;whiteSpace=wrap;html=1;fontSize=14;" vertex="1" parent="1">
          <mxGeometry x="-490" y="100" width="30" height="20" as="geometry" />
        </mxCell>
        <mxCell id="Il5zqESTYhuWdmyWhMW6-48" value="" style="strokeWidth=2;html=1;shape=mxgraph.flowchart.annotation_2;align=left;labelPosition=right;pointerEvents=1;fontSize=18;rotation=90;dashed=1;fillColor=#dae8fc;strokeColor=#6c8ebf;dashPattern=1 1;" vertex="1" parent="1">
          <mxGeometry x="-610" y="26" width="13" height="120" as="geometry" />
        </mxCell>
        <mxCell id="Il5zqESTYhuWdmyWhMW6-51" value="" style="group" vertex="1" connectable="0" parent="1">
          <mxGeometry x="-644" y="50" width="97" height="31" as="geometry" />
        </mxCell>
        <mxCell id="Il5zqESTYhuWdmyWhMW6-49" value="旧边集" style="text;html=1;strokeColor=none;fillColor=none;align=center;verticalAlign=middle;whiteSpace=wrap;rounded=0;dashed=1;fontSize=18;" vertex="1" parent="Il5zqESTYhuWdmyWhMW6-51">
          <mxGeometry width="60" height="30" as="geometry" />
        </mxCell>
        <mxCell id="Il5zqESTYhuWdmyWhMW6-50" value="$$O$$" style="text;html=1;strokeColor=none;fillColor=none;align=center;verticalAlign=middle;whiteSpace=wrap;rounded=0;dashed=1;fontSize=18;" vertex="1" parent="Il5zqESTYhuWdmyWhMW6-51">
          <mxGeometry x="37" y="1" width="60" height="30" as="geometry" />
        </mxCell>
        <mxCell id="Il5zqESTYhuWdmyWhMW6-52" value="" style="group" vertex="1" connectable="0" parent="1">
          <mxGeometry x="-530" y="50" width="97" height="31" as="geometry" />
        </mxCell>
        <mxCell id="Il5zqESTYhuWdmyWhMW6-53" value="新边集" style="text;html=1;strokeColor=none;fillColor=none;align=center;verticalAlign=middle;whiteSpace=wrap;rounded=0;dashed=1;fontSize=18;" vertex="1" parent="Il5zqESTYhuWdmyWhMW6-52">
          <mxGeometry width="60" height="30" as="geometry" />
        </mxCell>
        <mxCell id="Il5zqESTYhuWdmyWhMW6-54" value="$$D$$" style="text;html=1;strokeColor=none;fillColor=none;align=center;verticalAlign=middle;whiteSpace=wrap;rounded=0;dashed=1;fontSize=18;" vertex="1" parent="Il5zqESTYhuWdmyWhMW6-52">
          <mxGeometry x="37" y="1" width="60" height="30" as="geometry" />
        </mxCell>
        <mxCell id="Il5zqESTYhuWdmyWhMW6-57" value="" style="strokeWidth=2;html=1;shape=mxgraph.flowchart.annotation_2;align=left;labelPosition=right;pointerEvents=1;fontSize=18;rotation=90;dashed=1;fillColor=#dae8fc;strokeColor=#6c8ebf;dashPattern=1 1;" vertex="1" parent="1">
          <mxGeometry x="-496" y="57" width="13" height="58" as="geometry" />
        </mxCell>
        <mxCell id="Il5zqESTYhuWdmyWhMW6-58" value="" style="endArrow=none;html=1;rounded=0;fontSize=18;" edge="1" parent="1" source="Il5zqESTYhuWdmyWhMW6-59">
          <mxGeometry width="50" height="50" relative="1" as="geometry">
            <mxPoint x="-448" y="134" as="sourcePoint" />
            <mxPoint x="-468" y="114" as="targetPoint" />
          </mxGeometry>
        </mxCell>
        <mxCell id="Il5zqESTYhuWdmyWhMW6-59" value="边上标记" style="text;html=1;strokeColor=none;fillColor=none;align=center;verticalAlign=middle;whiteSpace=wrap;rounded=0;dashed=1;dashPattern=1 1;fontSize=18;" vertex="1" parent="1">
          <mxGeometry x="-460" y="130" width="90" height="19" as="geometry" />
        </mxCell>
        <mxCell id="Il5zqESTYhuWdmyWhMW6-60" value="" style="endArrow=none;html=1;rounded=0;fontSize=18;" edge="1" parent="1">
          <mxGeometry width="50" height="50" relative="1" as="geometry">
            <mxPoint x="-497.58333333333326" y="211" as="sourcePoint" />
            <mxPoint x="-490" y="240" as="targetPoint" />
          </mxGeometry>
        </mxCell>
        <mxCell id="Il5zqESTYhuWdmyWhMW6-61" value="边的目标顶点" style="text;html=1;strokeColor=none;fillColor=none;align=center;verticalAlign=middle;whiteSpace=wrap;rounded=0;dashed=1;dashPattern=1 1;fontSize=18;" vertex="1" parent="1">
          <mxGeometry x="-496" y="240" width="116" height="20" as="geometry" />
        </mxCell>
      </root>
    </mxGraphModel>
  </diagram>
</mxfile>
